<svg baseProfile="full" height="28" version="1.1" viewBox="0 0 225 28" width="225" xmlns="http://www.w3.org/2000/svg" xmlns:ev="http://www.w3.org/2001/xml-events" xmlns:xlink="http://www.w3.org/1999/xlink"><defs /><g><path d="M19.550978372811535 2.16271884654995V2.739443872296601Q18.916580844490216 2.9701338825952632 18.210092687950567 3.748712667353244Q17.503604531410918 4.527291452111225 16.89804325437693 6.170957775489185L10.813594232749743 22.636457260556128Q10.58290422245108 22.607621009268797 10.323377960865088 22.607621009268797Q10.063851699279095 22.607621009268797 9.8043254376931 22.607621009268797Q9.57363542739444 22.607621009268797 9.314109165808446 22.607621009268797Q9.054582904222451 22.607621009268797 8.82389289392379 22.636457260556128L1.470648815653965 4.58496395468589Q1.066941297631308 3.5468589083419175 0.576725025746653 3.1575695159629262Q0.08650875386199794 2.768280123583935 -0.34603501544799176 2.739443872296601V2.16271884654995Q0.5190525231719877 2.1915550978372806 1.68692070030896 2.220391349124613Q2.854788877445932 2.2492276004119454 4.03707518022657 2.2492276004119454Q5.363542739443872 2.2492276004119454 6.531410916580844 2.220391349124613Q7.699279093717817 2.1915550978372806 8.420185375901132 2.16271884654995V2.739443872296601Q7.497425334706488 2.768280123583935 6.9783728115345 2.955715756951596Q6.459320288362513 3.1431513903192574 6.401647785787848 3.64778578784758Q6.343975283213182 4.152420185375902 6.74768280123584 5.161688980432544L11.99588053553038 18.51287332646756L11.390319258496396 19.233779608650877L15.3697219361483 8.506694129763131Q16.14830072090628 6.343975283213183 16.177136972193615 5.104016477857879Q16.20597322348095 3.8640576725025753 15.57157569515963 3.316168898043255Q14.937178166838311 2.768280123583935 13.754891864057672 2.739443872296601V2.16271884654995Q14.735324407826983 2.1915550978372806 15.600411946446963 2.220391349124613Q16.465499485066942 2.2492276004119454 17.359423274974255 2.2492276004119454Q17.993820803295574 2.2492276004119454 18.55612770339856 2.220391349124613Q19.118434603501544 2.1915550978372806 19.550978372811535 2.16271884654995Z M23.703398558187438 0.23069001029866243Q24.914521112255407 0.23069001029866243 25.621009268795056 0.821833161688982Q26.327497425334705 1.4129763130793016 26.327497425334705 2.4510813594232737Q26.327497425334705 3.4891864057672493 25.621009268795056 4.080329557157569Q24.914521112255407 4.671472708547888 23.703398558187438 4.671472708547888Q22.492276004119464 4.671472708547888 21.785787847579815 4.080329557157569Q21.079299691040166 3.4891864057672493 21.079299691040166 2.4510813594232737Q21.079299691040166 1.4129763130793016 21.785787847579815 0.821833161688982Q22.492276004119464 0.23069001029866243 23.703398558187438 0.23069001029866243ZM25.952626158599383 7.3532440782698245V19.897013388259527Q25.952626158599383 21.108135942327497 26.37075180226571 21.540679711637488Q26.78887744593203 21.97322348094748 27.79814624098867 21.97322348094748V22.578784757981463Q27.279093717816686 22.54994850669413 26.183316168898045 22.506694129763133Q25.0875386199794 22.463439752832134 23.96292481977343 22.463439752832134Q22.838311019567456 22.463439752832134 21.68486096807415 22.506694129763133Q20.531410916580846 22.54994850669413 19.95468589083419 22.578784757981463V21.97322348094748Q20.963954685890833 21.97322348094748 21.382080329557155 21.540679711637488Q21.80020597322348 21.108135942327497 21.80020597322348 19.897013388259527V10.813594232749743Q21.80020597322348 9.515962924819775 21.41091658084449 8.895983522142123Q21.021627188465498 8.27600411946447 19.95468589083419 8.27600411946447V7.670442842430484Q20.877445932028838 7.756951596292483 21.742533470648816 7.756951596292483Q22.953656024716786 7.756951596292483 24.00617919670443 7.656024716786819Q25.05870236869207 7.555097837281155 25.952626158599383 7.3532440782698245Z M34.74768280123584 7.266735324407827Q35.95880535530381 7.266735324407827 36.86714727085479 7.56951596292482Q37.775489186405764 7.872296601441812 38.17919670442842 8.16065911431514Q39.15962924819773 8.82389289392379 39.3903192584964 7.29557157569516H39.99588053553038Q39.938208032955714 8.102986611740475 39.90937178166838 9.270854788877447Q39.88053553038105 10.438722966014419 39.88053553038105 12.370751802265707H39.27497425334707Q39.1307929969104 11.303810504634399 38.727085478887744 10.265705458290423Q38.32337796086509 9.227600411946447 37.55921730175077 8.564366632337796Q36.79505664263645 7.901132852729145 35.58393408856848 7.901132852729145Q34.74768280123584 7.901132852729145 34.170957775489185 8.376930998970135Q33.59423274974253 8.852729145211123 33.59423274974253 9.746652935118435Q33.59423274974253 10.611740473738415 34.113285272914524 11.2605561277034Q34.63233779608651 11.909371781668384 35.45417095777549 12.500514933058703Q36.27600411946447 13.091658084449023 37.16992790937178 13.754891864057672Q38.12152420185376 14.475798146240988 38.90010298661174 15.18228630278064Q39.678681771369725 15.888774459320288 40.14006179196704 16.725025746652936Q40.60144181256437 17.561277033985583 40.60144181256437 18.714727085478888Q40.60144181256437 20.012358393408856 39.85169927909372 20.9783728115345Q39.10195674562307 21.944387229660144 37.87641606591143 22.46343975283213Q36.65087538619979 22.98249227600412 35.151390319258496 22.98249227600412Q34.286302780638515 22.98249227600412 33.6086508753862 22.809474768280126Q32.930998970133885 22.636457260556128 32.44078269824923 22.376930998970135Q32.0659114315139 22.203913491246137 31.73429454170958 22.04531410916581Q31.402677651905254 21.88671472708548 31.114315139031927 21.77136972193615Q30.8259526261586 21.68486096807415 30.609680741503603 21.97322348094748Q30.39340885684861 22.261585993820805 30.27806385169928 22.78063851699279H29.672502574665295Q29.73017507723996 21.857878475798145 29.759011328527293 20.531410916580846Q29.787847579814624 19.204943357363543 29.787847579814624 17.013388259526263H30.39340885684861Q30.566426364572607 18.570545829042224 31.027806385169928 19.76725025746653Q31.48918640576725 20.963954685890833 32.2821833161689 21.64160659114315Q33.075180226570545 22.31925849639547 34.286302780638515 22.31925849639547Q34.77651905252317 22.31925849639547 35.237899073120495 22.117404737384142Q35.69927909371782 21.915550978372814 36.00205973223481 21.45417095777549Q36.304840370751805 20.992790937178167 36.304840370751805 20.27188465499485Q36.304840370751805 19.003089598352215 35.48300720906282 18.166838311019568Q34.66117404737384 17.33058702368692 33.3923789907312 16.350154479917613Q32.46961894953656 15.600411946446963 31.64778578784758 14.865087538619981Q30.8259526261586 14.129763130792998 30.30690010298661 13.250257466529352Q29.787847579814624 12.370751802265707 29.787847579814624 11.246138002059732Q29.787847579814624 9.948506694129764 30.479917610710608 9.054582904222451Q31.17198764160659 8.16065911431514 32.31101956745623 7.7136972193614834Q33.45005149330587 7.266735324407827 34.74768280123584 7.266735324407827Z M46.10916580844491 0.23069001029866243Q47.320288362512876 0.23069001029866243 48.026776519052525 0.821833161688982Q48.733264675592174 1.4129763130793016 48.733264675592174 2.4510813594232737Q48.733264675592174 3.4891864057672493 48.026776519052525 4.080329557157569Q47.320288362512876 4.671472708547888 46.10916580844491 4.671472708547888Q44.89804325437694 4.671472708547888 44.19155509783728 4.080329557157569Q43.48506694129763 3.4891864057672493 43.48506694129763 2.4510813594232737Q43.48506694129763 1.4129763130793016 44.19155509783728 0.821833161688982Q44.89804325437694 0.23069001029866243 46.10916580844491 0.23069001029866243ZM48.35839340885685 7.3532440782698245V19.897013388259527Q48.35839340885685 21.108135942327497 48.77651905252317 21.540679711637488Q49.1946446961895 21.97322348094748 50.20391349124614 21.97322348094748V22.578784757981463Q49.684860968074155 22.54994850669413 48.589083419155514 22.506694129763133Q47.493305870236874 22.463439752832134 46.368692070030896 22.463439752832134Q45.244078269824925 22.463439752832134 44.09062821833162 22.506694129763133Q42.937178166838315 22.54994850669413 42.36045314109166 22.578784757981463V21.97322348094748Q43.3697219361483 21.97322348094748 43.787847579814624 21.540679711637488Q44.20597322348095 21.108135942327497 44.20597322348095 19.897013388259527V10.813594232749743Q44.20597322348095 9.515962924819775 43.81668383110196 8.895983522142123Q43.42739443872297 8.27600411946447 42.36045314109166 8.27600411946447V7.670442842430484Q43.2832131822863 7.756951596292483 44.148300720906285 7.756951596292483Q45.359423274974255 7.756951596292483 46.41194644696189 7.656024716786819Q47.464469618949536 7.555097837281155 48.35839340885685 7.3532440782698245Z M58.883625128733264 7.266735324407827Q60.988671472708546 7.266735324407827 62.57466529351184 8.045314109165808Q64.16065911431514 8.82389289392379 65.05458290422246 10.55406797116375Q65.94850669412976 12.284243048403708 65.94850669412976 15.13903192584964Q65.94850669412976 17.99382080329557 65.05458290422246 19.709577754891864Q64.16065911431514 21.425334706488158 62.57466529351184 22.20391349124614Q60.988671472708546 22.98249227600412 58.883625128733264 22.98249227600412Q56.836251287332644 22.98249227600412 55.23583934088568 22.20391349124614Q53.63542739443872 21.425334706488158 52.727085478887744 19.709577754891864Q51.81874356333677 17.99382080329557 51.81874356333677 15.13903192584964Q51.81874356333677 12.284243048403708 52.727085478887744 10.55406797116375Q53.63542739443872 8.82389289392379 55.23583934088568 8.045314109165808Q56.836251287332644 7.266735324407827 58.883625128733264 7.266735324407827ZM58.883625128733264 7.84346035015448Q57.730175077239956 7.84346035015448 56.95159629248198 9.559217301750772Q56.173017507724 11.274974253347064 56.173017507724 15.13903192584964Q56.173017507724 19.003089598352215 56.95159629248198 20.704428424304844Q57.730175077239956 22.40576725025747 58.883625128733264 22.40576725025747Q60.0659114315139 22.40576725025747 60.83007209062822 20.704428424304844Q61.59423274974253 19.003089598352215 61.59423274974253 15.13903192584964Q61.59423274974253 11.274974253347064 60.83007209062822 9.559217301750772Q60.0659114315139 7.84346035015448 58.883625128733264 7.84346035015448Z M78.46343975283213 7.266735324407827Q79.67456230690011 7.266735324407827 80.43872296601442 7.56951596292482Q81.20288362512873 7.872296601441812 81.63542739443872 8.3913491246138Q82.09680741503605 8.93923789907312 82.31307929969105 9.8043254376931Q82.52935118434604 10.66941297631308 82.52935118434604 12.140061791967044V19.897013388259527Q82.52935118434604 21.108135942327497 82.94747682801236 21.540679711637488Q83.36560247167868 21.97322348094748 84.37487126673533 21.97322348094748V22.578784757981463Q83.82698249227602 22.54994850669413 82.73120494335737 22.506694129763133Q81.63542739443872 22.463439752832134 80.56848609680742 22.463439752832134Q79.47270854788879 22.463439752832134 78.42018537590114 22.506694129763133Q77.3676622039135 22.54994850669413 76.81977342945417 22.578784757981463V21.97322348094748Q77.68486096807416 21.97322348094748 78.03089598352216 21.540679711637488Q78.37693099897014 21.108135942327497 78.37693099897014 19.897013388259527V10.928939237899074Q78.37693099897014 10.208032955715757 78.23274974253349 9.674562306900103Q78.08856848609682 9.141091658084449 77.71369721936149 8.838311019567456Q77.33882595262617 8.535530381050464 76.58908341915551 8.535530381050464Q75.81050463439753 8.535530381050464 75.16168898043256 8.968074150360454Q74.51287332646757 9.400617919670443 74.12358393408857 10.164778578784759Q73.73429454170959 10.928939237899074 73.73429454170959 11.880535530381051V19.897013388259527Q73.73429454170959 21.108135942327497 74.09474768280124 21.540679711637488Q74.4552008238929 21.97322348094748 75.29145211122554 21.97322348094748V22.578784757981463Q74.77239958805356 22.54994850669413 73.77754891864058 22.506694129763133Q72.78269824922761 22.463439752832134 71.7157569515963 22.463439752832134Q70.61997940267766 22.463439752832134 69.46652935118435 22.506694129763133Q68.31307929969104 22.54994850669413 67.73635427394439 22.578784757981463V21.97322348094748Q68.74562306900104 21.97322348094748 69.16374871266737 21.540679711637488Q69.58187435633369 21.108135942327497 69.58187435633369 19.897013388259527V10.813594232749743Q69.58187435633369 9.515962924819775 69.19258496395469 8.895983522142123Q68.8032955715757 8.27600411946447 67.73635427394439 8.27600411946447V7.670442842430484Q68.65911431513904 7.756951596292483 69.52420185375902 7.756951596292483Q70.735324407827 7.756951596292483 71.78784757981464 7.656024716786819Q72.84037075180227 7.555097837281155 73.73429454170959 7.3532440782698245V9.948506694129764Q74.4552008238929 8.477857878475799 75.6951596292482 7.872296601441813Q76.93511843460351 7.266735324407827 78.46343975283213 7.266735324407827Z M110.52935118434604 2.16271884654995V2.739443872296601Q109.60659114315139 2.768280123583935 109.14521112255406 2.955715756951596Q108.68383110195674 3.1431513903192574 108.52523171987642 3.64778578784758Q108.36663233779609 4.152420185375902 108.36663233779609 5.219361483007209V19.5221421215242Q108.36663233779609 20.560247167868177 108.52523171987642 21.079299691040163Q108.68383110195674 21.598352214212152 109.14521112255406 21.771369721936146Q109.60659114315139 21.944387229660144 110.52935118434604 22.00205973223481V22.578784757981463Q109.72193614830073 22.5211122554068 108.49639546858909 22.506694129763133Q107.27085478887744 22.492276004119464 106.00205973223481 22.492276004119464Q104.61791967044284 22.492276004119464 103.40679711637488 22.506694129763133Q102.1956745623069 22.5211122554068 101.44593202883625 22.578784757981463V22.00205973223481Q102.42636457260556 21.944387229660144 102.93099897013388 21.771369721936146Q103.4356333676622 21.598352214212152 103.6086508753862 21.079299691040163Q103.7816683831102 20.560247167868177 103.7816683831102 19.5221421215242V3.92173017507724H103.98352214212153L96.83213182286303 22.607621009268797H96.37075180226572L88.58496395468589 4.037075180226569V17.84963954685891Q88.58496395468589 19.435633367662206 88.75798146240989 20.28630278063852Q88.93099897013388 21.13697219361483 89.52214212152421 21.497425334706488Q90.11328527291452 21.857878475798145 91.38208032955716 22.00205973223481V22.578784757981463Q90.83419155509785 22.5211122554068 89.94026776519053 22.506694129763133Q89.04634397528322 22.492276004119464 88.26776519052524 22.492276004119464Q87.60453141091658 22.492276004119464 86.9124613800206 22.506694129763133Q86.22039134912461 22.5211122554068 85.7590113285273 22.578784757981463V22.00205973223481Q86.68177136972194 21.857878475798145 87.14315139031926 21.511843460350153Q87.60453141091658 21.16580844490216 87.76313079299692 20.372811534500514Q87.92173017507724 19.57981462409887 87.92173017507724 18.195674562306902V5.219361483007209Q87.92173017507724 4.152420185375902 87.76313079299692 3.64778578784758Q87.60453141091658 3.1431513903192574 87.12873326467559 2.955715756951596Q86.65293511843461 2.768280123583935 85.7590113285273 2.739443872296601V2.16271884654995Q86.22039134912461 2.1915550978372806 86.9124613800206 2.220391349124613Q87.60453141091658 2.2492276004119454 88.26776519052524 2.2492276004119454Q89.50772399588054 2.2492276004119454 90.70442842430484 2.220391349124613Q91.90113285272915 2.1915550978372806 92.8238928939238 2.16271884654995L98.87950566426365 16.7826982492276L98.15859938208033 17.445932028836253L103.9546858908342 2.2492276004119454Q104.44490216271885 2.2492276004119454 104.96395468589084 2.2492276004119454Q105.48300720906283 2.2492276004119454 106.00205973223481 2.2492276004119454Q107.27085478887744 2.2492276004119454 108.49639546858909 2.220391349124613Q109.72193614830073 2.1915550978372806 110.52935118434604 2.16271884654995Z M116.15242018537592 22.78063851699279Q114.85478887744594 22.78063851699279 113.98970133882597 22.290422245108136Q113.12461380020598 21.80020597322348 112.72090628218332 20.9783728115345Q112.31719876416066 20.15653964984552 112.31719876416066 19.17610710607621Q112.31719876416066 17.93614830072091 112.87950566426366 17.157569515962926Q113.44181256436664 16.378990731204944 114.33573635427396 15.888774459320288Q115.22966014418127 15.398558187435633 116.22451081359424 15.081359423274975Q117.21936148300722 14.764160659114316 118.1277033985582 14.461380020597323Q119.03604531410917 14.15859938208033 119.59835221421216 13.740473738414007Q120.16065911431515 13.322348094747683 120.16065911431515 12.659114315139032V10.409886714727087Q120.16065911431515 9.660144181256436 119.91555097837282 9.069001029866119Q119.67044284243049 8.477857878475799 119.16580844490217 8.16065911431514Q118.66117404737385 7.84346035015448 117.85375901132853 7.84346035015448Q117.27703398558188 7.84346035015448 116.70030895983523 8.002059732234809Q116.12358393408857 8.16065911431514 115.74871266735326 8.535530381050464Q116.55612770339857 8.82389289392379 117.00308959835223 9.41503604531411Q117.45005149330588 10.006179196704428 117.45005149330588 10.755921730175078Q117.45005149330588 11.736354273944388 116.77239958805356 12.31307929969104Q116.09474768280124 12.889804325437694 115.1719876416066 12.889804325437694Q114.13388259526262 12.889804325437694 113.60041194644697 12.24098867147271Q113.06694129763132 11.592173017507724 113.06694129763132 10.66941297631308Q113.06694129763132 9.833161688980432 113.48506694129765 9.285272914521112Q113.90319258496396 8.737384140061792 114.65293511843461 8.247167868177137Q115.46035015447993 7.785787847579815 116.59938208032956 7.526261585993821Q117.7384140061792 7.266735324407827 119.0648815653965 7.266735324407827Q120.39134912461381 7.266735324407827 121.45829042224511 7.5406797116374875Q122.52523171987643 7.814624098867148 123.24613800205974 8.535530381050464Q123.9093717816684 9.198764160659115 124.11122554067973 10.164778578784759Q124.31307929969105 11.130792996910403 124.31307929969105 12.601441812564367V20.444902162718847Q124.31307929969105 21.16580844490216 124.45726055612772 21.439752832131823Q124.60144181256437 21.713697219361485 124.94747682801237 21.713697219361485Q125.20700308959836 21.713697219361485 125.45211122554069 21.56951596292482Q125.69721936148302 21.425334706488158 125.98558187435634 21.22348094747683L126.27394438722968 21.713697219361485Q125.66838311019569 22.23274974253347 124.87538619979404 22.506694129763133Q124.08238928939238 22.78063851699279 123.10195674562308 22.78063851699279Q122.03501544799177 22.78063851699279 121.40061791967045 22.4778578784758Q120.76622039134914 22.175077239958807 120.49227600411947 21.656024716786817Q120.21833161688981 21.13697219361483 120.21833161688981 20.444902162718847Q119.52626158599384 21.540679711637488 118.54582904222453 22.160659114315138Q117.56539649845521 22.78063851699279 116.15242018537592 22.78063851699279ZM118.19979402677653 20.935118434603503Q118.77651905252318 20.935118434603503 119.25231719876417 20.66117404737384Q119.72811534500516 20.387229660144182 120.16065911431515 19.752832131822863V13.841400617919671Q119.90113285272915 14.27394438722966 119.43975283213183 14.619979402677652Q118.97837281153451 14.966014418125644 118.45932028836253 15.326467559217303Q117.94026776519054 15.68692070030896 117.46446961894955 16.11946446961895Q116.98867147270856 16.55200823892894 116.70030895983524 17.186405767250257Q116.4119464469619 17.820803295571576 116.4119464469619 18.714727085478888Q116.4119464469619 19.839340885684862 116.90216271884657 20.387229660144182Q117.39237899073122 20.935118434603503 118.19979402677653 20.935118434603503Z M137.02986611740474 7.266735324407827Q137.9526261585994 7.266735324407827 138.52935118434604 7.656024716786818Q139.10607621009268 8.045314109165808 139.38002059732236 8.650875386199793Q139.653964984552 9.25643666323378 139.653964984552 9.919670442842431Q139.653964984552 10.98661174047374 139.03398558187436 11.664263645726056Q138.41400617919672 12.341915550978372 137.40473738414008 12.341915550978372Q136.39546858908344 12.341915550978372 135.83316168898045 11.837281153450052Q135.27085478887744 11.332646755921731 135.27085478887744 10.496395468589084Q135.27085478887744 9.68898043254377 135.63130792996913 9.155509783728117Q135.99176107106078 8.622039134912463 136.5396498455201 8.247167868177137Q136.13594232749745 8.131822863027807 135.73223480947476 8.27600411946447Q135.18434603501547 8.362512873326468 134.6941297631308 8.722966014418127Q134.20391349124614 9.083419155509784 133.85787847579815 9.616889804325439Q133.51184346035015 10.150360453141092 133.30998970133882 10.770339855818744Q133.1081359423275 11.390319258496396 133.1081359423275 11.967044284243048V19.6086508753862Q133.1081359423275 20.992790937178167 133.7857878475798 21.483007209062823Q134.46343975283213 21.97322348094748 135.81874356333677 21.97322348094748V22.578784757981463Q135.15550978372812 22.54994850669413 133.8867147270855 22.506694129763133Q132.61791967044286 22.463439752832134 131.23377960865088 22.463439752832134Q130.08032955715757 22.463439752832134 128.89804325437694 22.506694129763133Q127.7157569515963 22.54994850669413 127.1101956745623 22.578784757981463V21.97322348094748Q128.11946446961895 21.97322348094748 128.53759011328526 21.540679711637488Q128.9557157569516 21.108135942327497 128.9557157569516 19.897013388259527V10.813594232749743Q128.9557157569516 9.515962924819775 128.5664263645726 8.895983522142123Q128.1771369721936 8.27600411946447 127.1101956745623 8.27600411946447V7.670442842430484Q128.03295571575697 7.756951596292483 128.89804325437694 7.756951596292483Q130.1091658084449 7.756951596292483 131.16168898043256 7.656024716786819Q132.2142121524202 7.555097837281155 133.1081359423275 7.3532440782698245V10.03501544799176Q133.4541709577755 9.25643666323378 134.03089598352216 8.622039134912463Q134.6076210092688 7.9876416065911435 135.35736354273945 7.6271884654994855Q136.1071060762101 7.266735324407827 137.02986611740474 7.266735324407827Z M146.4304840370752 0.0V19.897013388259527Q146.4304840370752 21.108135942327497 146.8197734294542 21.540679711637488Q147.20906282183316 21.97322348094748 148.16065911431514 21.97322348094748V22.578784757981463Q147.6127703398558 22.54994850669413 146.56024716786817 22.506694129763133Q145.50772399588055 22.463439752832134 144.4119464469619 22.463439752832134Q143.28733264675594 22.463439752832134 142.1483007209063 22.506694129763133Q141.00926879505664 22.54994850669413 140.43254376931 22.578784757981463V21.97322348094748Q141.44181256436664 21.97322348094748 141.859938208033 21.540679711637488Q142.2780638516993 21.108135942327497 142.2780638516993 19.897013388259527V3.4603501544799187Q142.2780638516993 2.16271884654995 141.8887744593203 1.542739443872298Q141.4994850669413 0.9227600411946462 140.43254376931 0.9227600411946462V0.31719876416065773Q141.35530381050464 0.4037075180226566 142.2203913491246 0.4037075180226566Q143.40267765190526 0.4037075180226566 144.46961894953657 0.30278063851699244Q145.53656024716787 0.2018537590113283 146.4304840370752 0.0ZM155.83110195674564 7.670442842430484V8.247167868177137Q154.93717816683832 8.420185375901132 154.043254376931 8.996910401647785Q153.14933058702368 9.57363542739444 152.22657054582905 10.467559217301751L150.00617919670444 12.774459320288363L150.29454170957777 12.226570545829043L155.22554067971166 20.47373841400618Q155.5427394438723 20.992790937178167 155.8887744593203 21.396498455200824Q156.2348094747683 21.80020597322348 156.72502574665293 21.97322348094748V22.578784757981463Q156.29248197734296 22.54994850669413 155.42739443872298 22.506694129763133Q154.562306900103 22.463439752832134 153.697219361483 22.463439752832134Q152.6302780638517 22.463439752832134 151.5633367662204 22.506694129763133Q150.4963954685891 22.54994850669413 149.9773429454171 22.578784757981463V21.97322348094748Q150.55406797116376 21.97322348094748 150.7559217301751 21.69927909371782Q150.95777548918642 21.425334706488158 150.69824922760043 20.992790937178167L147.8434603501545 15.831101956745623Q147.4974253347065 15.283213182286303 147.16580844490215 15.124613800205974Q146.83419155509785 14.966014418125644 146.28630278063852 14.937178166838311V14.389289392378991Q146.8918640576725 14.331616889804327 147.33882595262617 14.187435633367663Q147.78578784757983 14.043254376931 148.16065911431514 13.639546858908343L150.35221421215243 11.505664263645727Q151.33264675592173 10.582904222451083 151.33264675592173 9.861997940267766Q151.33264675592173 9.141091658084449 150.7126673532441 8.70854788877446Q150.09268795056644 8.27600411946447 149.0834191555098 8.247167868177137V7.670442842430484Q149.89083419155511 7.699279093717816 150.8424304840371 7.72811534500515Q151.79402677651905 7.756951596292483 152.45726055612772 7.756951596292483Q153.03398558187436 7.756951596292483 153.68280123583935 7.742533470648817Q154.33161688980434 7.7281153450051505 154.90834191555098 7.7136972193614834Q155.48506694129765 7.699279093717816 155.83110195674564 7.670442842430484Z M164.88568486096807 7.266735324407827Q167.42327497425336 7.266735324407827 168.86508753862 8.766220391349126Q170.30690010298662 10.265705458290423 170.30690010298662 13.668383110195675H160.8197734294542L160.76210092687953 13.120494335736355H166.6735324407827Q166.70236869207005 11.707518022657055 166.50051493305872 10.51081359423275Q166.2986611740474 9.314109165808445 165.8661174047374 8.593202883625128Q165.4335736354274 7.872296601441812 164.7126673532441 7.872296601441812Q163.70339855818744 7.872296601441812 162.9969104016478 9.141091658084449Q162.29042224510815 10.409886714727087 162.14624098867148 13.351184346035016L162.23274974253349 13.524201853759012Q162.20391349124614 13.870236869207003 162.18949536560248 14.245108135942328Q162.17507723995882 14.619979402677654 162.17507723995882 15.02368692070031Q162.17507723995882 17.013388259526263 162.7373841400618 18.253347064881567Q163.2996910401648 19.49330587023687 164.16477857878476 20.055612770339856Q165.02986611740474 20.617919670442845 165.92378990731206 20.617919670442845Q166.52935118434604 20.617919670442845 167.17816683831103 20.430484037075182Q167.82698249227602 20.24304840370752 168.49021627188466 19.738414006179198Q169.1534500514933 19.233779608650877 169.73017507723998 18.31101956745623L170.24922760041196 18.484037075180225Q169.90319258496396 19.57981462409887 169.1534500514933 20.617919670442845Q168.40370751802266 21.656024716786817 167.25025746652938 22.31925849639547Q166.09680741503607 22.98249227600412 164.4819773429454 22.98249227600412Q162.52111225540682 22.98249227600412 161.02162718846552 22.146240988671472Q159.5221421215242 21.309989701338825 158.6714727085479 19.6086508753862Q157.82080329557158 17.907312049433575 157.82080329557158 15.283213182286303Q157.82080329557158 12.601441812564367 158.72914521112256 10.813594232749743Q159.63748712667353 9.02574665293512 161.2378990731205 8.146240988671472Q162.83831101956747 7.266735324407827 164.88568486096807 7.266735324407827Z M177.83316168898043 2.941297631307929V7.670442842430484H181.2358393408857V8.247167868177137H177.83316168898043V19.897013388259527Q177.83316168898043 20.762100926879505 178.1503604531411 21.122554067971166Q178.46755921730175 21.483007209062823 179.10195674562306 21.483007209062823Q179.62100926879504 21.483007209062823 180.140061791967 21.09371781668383Q180.65911431513902 20.70442842430484 181.06282183316168 19.752832131822863L181.55303810504634 20.012358393408856Q181.09165808444902 21.309989701338825 180.1544799176107 22.146240988671472Q179.21730175077238 22.98249227600412 177.60247167868175 22.98249227600412Q176.6508753861998 22.98249227600412 175.9299691040165 22.737384140061792Q175.20906282183316 22.492276004119464 174.7188465499485 22.00205973223481Q174.0844490216272 21.367662203913493 173.88259526261587 20.430484037075182Q173.68074150360454 19.49330587023687 173.68074150360454 17.99382080329557V8.247167868177137H171.25849639546857V7.670442842430484H173.68074150360454V3.8640576725025753Q174.8918640576725 3.8640576725025753 175.9155509783728 3.64778578784758Q176.9392378990731 3.4315139031925845 177.83316168898043 2.941297631307929Z M185.87847579814624 0.23069001029866243Q187.0895983522142 0.23069001029866243 187.79608650875386 0.821833161688982Q188.5025746652935 1.4129763130793016 188.5025746652935 2.4510813594232737Q188.5025746652935 3.4891864057672493 187.79608650875386 4.080329557157569Q187.0895983522142 4.671472708547888 185.87847579814624 4.671472708547888Q184.66735324407827 4.671472708547888 183.96086508753862 4.080329557157569Q183.25437693099897 3.4891864057672493 183.25437693099897 2.4510813594232737Q183.25437693099897 1.4129763130793016 183.96086508753862 0.821833161688982Q184.66735324407827 0.23069001029866243 185.87847579814624 0.23069001029866243ZM188.1277033985582 7.3532440782698245V19.897013388259527Q188.1277033985582 21.108135942327497 188.5458290422245 21.540679711637488Q188.96395468589083 21.97322348094748 189.97322348094747 21.97322348094748V22.578784757981463Q189.4541709577755 22.54994850669413 188.35839340885684 22.506694129763133Q187.26261585993822 22.463439752832134 186.13800205973223 22.463439752832134Q185.01338825952627 22.463439752832134 183.85993820803296 22.506694129763133Q182.70648815653965 22.54994850669413 182.129763130793 22.578784757981463V21.97322348094748Q183.13903192584965 21.97322348094748 183.55715756951597 21.540679711637488Q183.97528321318228 21.108135942327497 183.97528321318228 19.897013388259527V10.813594232749743Q183.97528321318228 9.515962924819775 183.5859938208033 8.895983522142123Q183.1967044284243 8.27600411946447 182.129763130793 8.27600411946447V7.670442842430484Q183.05252317198764 7.756951596292483 183.91761071060762 7.756951596292483Q185.1287332646756 7.756951596292483 186.18125643666323 7.656024716786819Q187.23377960865088 7.555097837281155 188.1277033985582 7.3532440782698245Z M201.94026776519053 7.266735324407827Q203.1513903192585 7.266735324407827 203.9155509783728 7.56951596292482Q204.67971163748712 7.872296601441812 205.11225540679712 8.3913491246138Q205.57363542739444 8.93923789907312 205.78990731204942 9.8043254376931Q206.0061791967044 10.66941297631308 206.0061791967044 12.140061791967044V19.897013388259527Q206.0061791967044 21.108135942327497 206.42430484037072 21.540679711637488Q206.84243048403707 21.97322348094748 207.8516992790937 21.97322348094748V22.578784757981463Q207.30381050463438 22.54994850669413 206.20803295571574 22.506694129763133Q205.11225540679712 22.463439752832134 204.04531410916582 22.463439752832134Q202.94953656024717 22.463439752832134 201.89701338825952 22.506694129763133Q200.84449021627188 22.54994850669413 200.29660144181256 22.578784757981463V21.97322348094748Q201.16168898043253 21.97322348094748 201.50772399588053 21.540679711637488Q201.85375901132852 21.108135942327497 201.85375901132852 19.897013388259527V10.928939237899074Q201.85375901132852 10.208032955715757 201.70957775489185 9.674562306900103Q201.5653964984552 9.141091658084449 201.19052523171985 8.838311019567456Q200.81565396498453 8.535530381050464 200.0659114315139 8.535530381050464Q199.2873326467559 8.535530381050464 198.63851699279093 8.968074150360454Q197.98970133882594 9.400617919670443 197.60041194644697 10.164778578784759Q197.21112255406797 10.928939237899074 197.21112255406797 11.880535530381051V19.897013388259527Q197.21112255406797 21.108135942327497 197.57157569515962 21.540679711637488Q197.93202883625128 21.97322348094748 198.76828012358393 21.97322348094748V22.578784757981463Q198.24922760041193 22.54994850669413 197.25437693099894 22.506694129763133Q196.259526261586 22.463439752832134 195.1925849639547 22.463439752832134Q194.09680741503604 22.463439752832134 192.94335736354273 22.506694129763133Q191.78990731204942 22.54994850669413 191.21318228630278 22.578784757981463V21.97322348094748Q192.22245108135942 21.97322348094748 192.64057672502574 21.540679711637488Q193.05870236869205 21.108135942327497 193.05870236869205 19.897013388259527V10.813594232749743Q193.05870236869205 9.515962924819775 192.66941297631308 8.895983522142123Q192.28012358393408 8.27600411946447 191.21318228630278 8.27600411946447V7.670442842430484Q192.13594232749742 7.756951596292483 193.0010298661174 7.756951596292483Q194.21215242018536 7.756951596292483 195.264675592173 7.656024716786819Q196.31719876416065 7.555097837281155 197.21112255406797 7.3532440782698245V9.948506694129764Q197.93202883625128 8.477857878475799 199.17198764160656 7.872296601441813Q200.41194644696188 7.266735324407827 201.94026776519053 7.266735324407827Z M214.51287332646757 28.0Q212.72502574665293 28.0 211.3264675592173 27.697219361483008Q209.92790937178168 27.394438722966015 209.13491246138003 26.774459320288365Q208.34191555097837 26.15447991761071 208.34191555097837 25.2605561277034Q208.34191555097837 24.366632337796087 209.14933058702368 23.660144181256438Q209.956745623069 22.95365602471679 211.5427394438723 22.54994850669413L211.8022657054583 23.011328527291454Q211.25437693099897 23.44387229660144 211.00926879505664 23.94850669412976Q210.7641606591143 24.453141091658086 210.7641606591143 25.001029866117406Q210.7641606591143 26.212152420185376 211.87435633367662 26.86096807415036Q212.98455200823892 27.509783728115345 214.88774459320288 27.509783728115345Q216.18537590113286 27.509783728115345 217.2090628218332 27.163748712667353Q218.23274974253349 26.81771369721936 218.8238928939238 26.125643666323377Q219.4150360453141 25.433573635427393 219.4150360453141 24.424304840370752Q219.4150360453141 23.559217301750774 218.78063851699278 22.968074150360454Q218.14624098867148 22.376930998970135 216.24304840370752 22.376930998970135H214.4552008238929Q213.27291452111226 22.376930998970135 212.39340885684862 22.117404737384142Q211.51390319258496 21.857878475798145 211.0236869207003 21.29557157569516Q210.53347064881567 20.733264675592174 210.53347064881567 19.868177136972193Q210.53347064881567 18.657054582904223 211.48506694129765 17.73429454170958Q212.43666323377963 16.811534500514934 214.31101956745624 16.004119464469618L214.59938208032958 16.23480947476828Q214.05149330587025 16.580844490216272 213.57569515962928 16.970133882595263Q213.09989701338827 17.359423274974255 213.09989701338827 17.96498455200824Q213.09989701338827 18.887744593202886 214.25334706488158 18.887744593202886H217.39649845520083Q218.98249227600414 18.887744593202886 220.2368692070031 19.262615859938208Q221.49124613800205 19.637487126673534 222.22657054582905 20.488156539649847Q222.96189495365604 21.33882595262616 222.96189495365604 22.694129763130793Q222.96189495365604 24.107106076210094 222.05355303810506 25.318228630278064Q221.1452111225541 26.529351184346037 219.27085478887744 27.26467559217302Q217.39649845520083 28.0 214.51287332646757 28.0ZM214.8012358393409 16.43666323377961Q213.15756951596293 16.43666323377961 211.85993820803296 15.946446961894953Q210.56230690010298 15.4562306900103 209.81256436663233 14.446961894953656Q209.0628218331617 13.437693099897015 209.0628218331617 11.851699279093719Q209.0628218331617 10.265705458290423 209.81256436663233 9.242018537590113Q210.56230690010298 8.218331616889804 211.85993820803296 7.742533470648816Q213.15756951596293 7.266735324407827 214.8012358393409 7.266735324407827Q216.44490216271885 7.266735324407827 217.74253347064882 7.742533470648816Q219.0401647785788 8.218331616889804 219.78990731204945 9.242018537590113Q220.5396498455201 10.265705458290423 220.5396498455201 11.851699279093719Q220.5396498455201 13.437693099897015 219.78990731204945 14.446961894953656Q219.0401647785788 15.4562306900103 217.74253347064882 15.946446961894953Q216.44490216271885 16.43666323377961 214.8012358393409 16.43666323377961ZM214.8012358393409 15.917610710607622Q215.57981462409887 15.917610710607622 216.01235839340887 15.038105046343976Q216.44490216271885 14.15859938208033 216.44490216271885 11.851699279093719Q216.44490216271885 9.544799176107107 216.01235839340887 8.665293511843462Q215.57981462409887 7.785787847579815 214.8012358393409 7.785787847579815Q214.05149330587025 7.785787847579815 213.6045314109166 8.665293511843462Q213.15756951596293 9.544799176107107 213.15756951596293 11.851699279093719Q213.15756951596293 14.15859938208033 213.6045314109166 15.038105046343976Q214.05149330587025 15.917610710607622 214.8012358393409 15.917610710607622ZM219.2996910401648 9.746652935118435 218.72296601441812 9.544799176107107Q219.15550978372812 8.420185375901132 220.12152420185376 7.670442842430484Q221.0875386199794 6.920700308959836 222.2121524201854 6.920700308959836Q223.13491246138003 6.920700308959836 223.610710607621 7.425334706488157Q224.086508753862 7.929969104016479 224.086508753862 8.737384140061792Q224.086508753862 9.602471678681772 223.6251287332647 10.020597322348095Q223.16374871266737 10.438722966014419 222.5870236869207 10.438722966014419Q222.09680741503604 10.438722966014419 221.67868177136972 10.092687950566427Q221.2605561277034 9.746652935118435 221.20288362512875 9.040164778578784Q221.1452111225541 8.333676622039135 221.69309989701338 7.209062821833163L221.8949536560247 7.382080329557159Q220.7991761071061 7.785787847579815 220.25128733264677 8.31925849639547Q219.70339855818744 8.852729145211123 219.2996910401648 9.746652935118435Z " fill="rgb(255,255,255)" transform="translate(0.34603501544799176, 0)" /></g></svg>